<svg xmlns="http://www.w3.org/2000/svg" width="96" height="96" viewBox="18 18 95.999 96"><path class="social-icon-fill" d="M66.004 18c-13.036 0-14.672.057-19.792.29-5.11.234-8.598 1.043-11.65 2.23-3.157 1.226-5.835 2.866-8.503 5.535-2.67 2.668-4.31 5.346-5.54 8.502-1.19 3.053-2 6.542-2.23 11.65C18.06 51.327 18 52.964 18 66s.058 14.667.29 19.787c.235 5.109 1.044 8.598 2.23 11.65 1.227 3.156 2.867 5.834 5.536 8.502 2.667 2.67 5.345 4.314 8.5 5.541 3.054 1.187 6.543 1.996 11.652 2.229 5.12.233 6.755.29 19.79.29 13.037 0 14.668-.057 19.788-.29 5.11-.233 8.603-1.043 11.655-2.229 3.156-1.227 5.83-2.871 8.498-5.541 2.67-2.668 4.31-5.346 5.539-8.502 1.181-3.053 1.99-6.541 2.23-11.649.23-5.12.29-6.752.29-19.788s-.06-14.672-.29-19.792c-.24-5.11-1.05-8.598-2.23-11.65-1.229-3.157-2.869-5.835-5.539-8.503-2.67-2.67-5.34-4.31-8.5-5.535-3.061-1.187-6.551-1.996-11.66-2.23-5.12-.233-6.75-.29-19.791-.29h.016zm-4.306 8.65c1.278-.002 2.704 0 4.306 0 12.816 0 14.335.046 19.396.276 4.68.214 7.22.996 8.912 1.653 2.239.87 3.836 1.91 5.516 3.59 1.68 1.68 2.72 3.28 3.592 5.52.657 1.69 1.439 4.23 1.653 8.91.229 5.06.28 6.58.28 19.39s-.051 14.329-.28 19.39c-.214 4.68-.996 7.221-1.653 8.91-.87 2.24-1.912 3.835-3.592 5.514-1.68 1.68-3.275 2.721-5.516 3.59-1.69.66-4.232 1.44-8.912 1.654-5.061.23-6.58.28-19.396.28-12.817 0-14.336-.05-19.396-.28-4.68-.216-7.22-.998-8.913-1.654-2.24-.871-3.84-1.91-5.52-3.591-1.68-1.68-2.72-3.276-3.592-5.517-.657-1.69-1.44-4.23-1.653-8.91-.23-5.061-.276-6.58-.276-19.398s.046-14.33.276-19.39c.214-4.68.996-7.22 1.653-8.912.87-2.24 1.912-3.84 3.592-5.52 1.68-1.68 3.28-2.72 5.52-3.592 1.692-.66 4.233-1.44 8.913-1.655 4.428-.2 6.144-.26 15.09-.27v.012zm29.928 7.97a5.758 5.758 0 1 0 0 11.518 5.762 5.762 0 0 0 5.761-5.76c0-3.18-2.58-5.76-5.761-5.76v.002zm-25.622 6.73c-13.613 0-24.65 11.037-24.65 24.65 0 13.613 11.037 24.645 24.65 24.645C79.617 90.645 90.65 79.613 90.65 66S79.616 41.35 66.004 41.35zm0 8.65c8.836 0 16 7.163 16 16 0 8.836-7.164 16-16 16-8.837 0-16-7.164-16-16 0-8.837 7.163-16 16-16z"/></svg>