<svg xmlns="http://www.w3.org/2000/svg" width="118" height="96" viewBox="14.631 17.839 118.328 96.161"><path class="social-icon-fill" d="M132.959 29.223a48.437 48.437 0 0 1-13.943 3.821c5.014-3.002 8.864-7.76 10.674-13.43a48.625 48.625 0 0 1-15.417 5.892 24.232 24.232 0 0 0-17.719-7.667c-15.674 0-27.191 14.624-23.651 29.804-20.17-1.011-38.057-10.674-50.033-25.362-6.36 10.911-3.298 25.184 7.509 32.412a24.176 24.176 0 0 1-10.99-3.037c-.266 11.246 7.795 21.767 19.471 24.109a24.327 24.327 0 0 1-10.965.414c3.086 9.644 12.05 16.659 22.679 16.857-10.206 8-23.064 11.574-35.943 10.058C25.375 109.981 38.139 114 51.845 114c45.073 0 70.539-38.067 69-72.209a49.455 49.455 0 0 0 12.114-12.568z"/></svg>